<svg xmlns="http://www.w3.org/2000/svg" viewBox="0 0 174.44 259.69"><g id="Layer_2" data-name="Layer 2"><g id="Layer_1-2" data-name="Layer 1"><path d="M66.37,145.2a17,17,0,0,1-1.12-11.52c-4.89-2.51-7.46-6.4-6.7-12.16l-10-3.28a9.14,9.14,0,0,1-7,4.51,18.54,18.54,0,0,1-10.73-2.2c.38-.93.76-1.88,1.16-2.82.18-.43.41-.84.67-1.35,3.56.8,7.07,3,10.87.27-1.32-1.41-3.48-2.13-2.86-4.43.51-1.92,2.27-2,3.8-2.39-.76-1.79-.76-1.79-5.4-4.31-.46-1.85.15-3.23,2-4.23,4.55,2,8.54,4.53,9.32,10.25l11.53,4c2.67-2.42,5.88-2.5,9.09-2.17A24.33,24.33,0,0,1,83.2,118a11.1,11.1,0,0,1,3.17,3.2A15.79,15.79,0,0,0,89.86,125c1.86,1.71,3.48,3.69,5.4,5.76,18.63-3.7,36.23-.44,52.05,10.86a63,63,0,0,1,24.88,35.93A65.22,65.22,0,1,1,66.37,145.2Zm70.68,29.42.07.08.09-.82a5.45,5.45,0,0,0-1.57.1c-1,.36-2,.86-3,1.32a4.1,4.1,0,0,0-.33-1.08,1.29,1.29,0,0,0-.54-.34l-4.87,5.06a15.46,15.46,0,0,1-.35,2.58,3.6,3.6,0,0,0,.07,3.09,5.8,5.8,0,0,1,.68,4.07,14.29,14.29,0,0,0,0,3.21c-.91-.36-1.5-.09-1.13.92a8.92,8.92,0,0,0,1.44,1.92c-2.5,2.06-.27,3.81.28,5.69h1.4c-.45-1.33.77-1.54,1.35-2.41l1.2,1.59c.74-.18,1.53-.8,2.46.67-.62.73-1.23,1.46-1.85,2.18l-.41-.56,1.16,1.6,2.05-.59c-.38,1-.65,1.72-.94,2.49.89.79,2,1.16,2.32,2.5.19.82,1.86,1.33,2.17.75,1.11-2.08,3.1-.11,4.29-1.21,2.73.84,4.1-.87,5.33-2.56-.45-1.94-1.31.21-2-.67l3.7-5.7-1-.38c.17-.26.27-.6.5-.73.73-.43,1.79-.6,2.19-1.22s0-1.79.37-2.54a2.51,2.51,0,0,0-.15-2.16c-.55-1.68-.34-3.52-.92-5.26-.26-.81.25-1.88.43-3l1.4.44-.35-2c-.92-.85-1.85-1.32-2-1.93s.87-1.14,1.58-2a18.9,18.9,0,0,0-2.74-.26c-1.14.05-2.13.17-2.56-1.3-.14-.45-.94-.71-1.54-1.13-.37.63-.62,1.06-1,1.64l-4.57-2.06-.81,1ZM67.39,129a16.63,16.63,0,0,1,12-7.06c-3.84-2.65-8.78-4.15-11.33-3.54a5.79,5.79,0,0,0,.37.61,2.83,2.83,0,0,1,.5,3.32c-.65,1.23-1.86,1.36-3.11,1.34-.75,0-1.51,0-2.28,0C64,126.5,64.81,127.57,67.39,129Zm8.1,3.39c2.24-2.89,2.24-2.91,5.85-2.25,1,.18,1.31-.23,1.31-1.12-2.83-1.6-6.57-.61-9,2.48ZM75,137.52l-3.74-1.28c-.09,1.32-.15,2.29-.25,3.72Zm49.23,48.94a3.88,3.88,0,0,1,.66.45,4.65,4.65,0,0,1,.49.67c1.43-1.62,1.43-1.64-.21-3.54ZM61.15,119.22c1.73,1.47,1.86,1.52,4,1.38C63.74,119.81,62.7,119,61.15,119.22ZM47.47,107.4c.58,1.75,1,3.08,1.47,4.4C49.41,110.16,49,108.82,47.47,107.4ZM62,124.75c0,2.47.11,2.72,1.89,3.82C63.21,127.24,62.65,126.11,62,124.75Zm62,70.12c.23,1.66.93,1.72,1.83,1.36.09,0,.1-.24.19-.48Zm.39,3.43-.39.26c.33.7,0,2,1.71,1.61ZM69.16,141l.57-.06-.45-1.87a4.91,4.91,0,0,0-.31,1.12A4,4,0,0,0,69.16,141Z"/><path d="M22.13,27.59A21.38,21.38,0,0,1,20,26.9c-2.6-1.19-5.19-2.42-7.78-3.63a11.6,11.6,0,0,0-2.15-1c-1.23-.29-1.46-1-1.33-2.11q.88-7.5,1.69-15a1.89,1.89,0,0,1,1.46-1.89c.87-.27,1.62-1,2.49-1.26A26.69,26.69,0,0,1,20.05.33C27.11-.42,34.12,0,40.82,2.59c3.1,1.19,6,2.85,9.23,4.41-.67,5.76-1.34,11.53-2,17-5.51,4.67-11.77,5.09-18.5,4.53l-4.69,8.6c.11.3.12.49.22.6,3.33,3.72,3.71,8,2.27,12.55a70.67,70.67,0,0,1-2.35,7c-1.49,3.48-3.59,6.47-7.94,7L15.89,75.47c4.36,2.67,6,6.91,6.79,11.63.64,3.75-.56,4.9-4.33,4-.69-3.28-.9-6.76-2.82-10.07-.45.85-.74,1.46-1.09,2-1.46,2.49-3.77,2.48-5.18,0-.31-.55-.53-1.15-.8-1.74C6.93,82.65,6.93,82.65,6,90.12H1.32c0-4,.14-7.88,2.51-11.22A12.9,12.9,0,0,1,7.29,76c.62-.42,1.18-.66,1.29-1.52.46-3.72,1-7.44,1.48-11.17A25.59,25.59,0,0,1,7.31,61a10.32,10.32,0,0,1-2.63-8.42,39,39,0,0,1,3.38-12c1.66-3.5,4.66-5.22,8.26-5.85a3.75,3.75,0,0,0,3.05-2.23C20.17,30.92,21.14,29.36,22.13,27.59ZM15.45,39.87A6.57,6.57,0,0,0,12,43.92c-.85,3.4-1.54,6.84-2.22,10.28A2.46,2.46,0,0,0,10.83,57c.32-.28.62-.54.9-.8,2.57-2.32,4.33-1.82,5.38,1.52.13.4.24.8.39,1.36.49-.35.82-.48,1-.72a26.9,26.9,0,0,0,4.61-13.41,2.55,2.55,0,0,0-1-2.46C17.93,45.53,16.92,45.14,15.45,39.87ZM27.66,23.68a11.63,11.63,0,0,0-3.56,7A15.58,15.58,0,0,0,27.66,23.68ZM24.18,11A34,34,0,0,1,13.47,6.34,16,16,0,0,0,24.18,11ZM7.27,53.52C6.49,55,7.34,57.87,9.07,59Zm35-31.42c-1.64-1.1-2.27-.82-3.1,1.4C40.53,23.69,41.65,23.5,42.27,22.1Zm-4.7-9.67c3.43.37,4.91.1,6.65-1.15ZM11.43,80.82a4.36,4.36,0,0,0,.5-4.45Zm14-36.08c.59-1,.54-2-.76-3ZM47.14,9.86,47,9.71l-1.1,1,.41.42C46.59,10.71,46.86,10.28,47.14,9.86ZM25.41,33.29l.42.25,1-1.91-.34-.18Z"/><path d="M29,109.25l2.56-2.7c1.07,1.07,2.16,2.07,3.15,3.16.52.56.39,1.44-.32,1.54a8.64,8.64,0,0,1-3.51-.22C30.23,110.84,29.75,110,29,109.25Z"/><path d="M2.34,121.65l3.52,2.79c-2.29,2.09-3.06,2-4.88-.85Z"/><path d="M45.09,76.81c1-.92,2-1.2,2.85-.24a2.76,2.76,0,0,1,.61,2.06c-.06.34-1.15.69-1.77.69C45.16,79.32,45.49,77.87,45.09,76.81Z"/><path d="M6.78,109.25c.9,1.78,1.61,3.18,2.44,4.84-1.68,0-2.58-.79-3.7-1.84C5.89,111.37,6.29,110.43,6.78,109.25Z"/><path d="M25.63,98.26c.55-.79,1.15-1.67,2.24-1.24.39.15.67,1,.72,1.55a1.27,1.27,0,0,1-1.3,1.41C26.2,100,25.86,99.18,25.63,98.26Z"/><path d="M17.75,102c1.62,1.48,1.67,1.9.58,3.07-.45.48-1,1-1.58.39a2,2,0,0,1-.34-1.67A7,7,0,0,1,17.75,102Z"/><path d="M2,95.78c2.59-.14,2.65-.07,2.1,2.21C2.17,98,2.17,98,2,95.78Z"/><path d="M13.44,116.11l3-2c.31,1.46.07,2.48-1,2.92C15.06,117.18,14.35,116.55,13.44,116.11Z"/><path d="M13,103.45a21,21,0,0,1-2.48-1.23c-.19-.13-.22-.69-.13-1s.53-.55.67-.49a4.19,4.19,0,0,1,1.53,1C12.81,102,12.77,102.54,13,103.45Z"/><path d="M0,59.8c.08-1.24-.18-2.31,1.07-2.58.36-.07,1.19.43,1.22.73C2.42,59.34,1.29,59.45,0,59.8Z"/><path d="M7.52,106.94c-.93-.79-1.07-1.39-.5-2.07a1.81,1.81,0,0,1,2.45-.45Z"/><path d="M29.06,73.18c2.26-.16,2.26-.16,3,1.35C30.69,74.84,30,73.81,29.06,73.18Z"/><path d="M33.56,86.19V83.13C34.7,83.62,34.7,83.62,33.56,86.19Z"/><path d="M37.2,83.86c.25.31.56.51.56.73s-.29.43-.45.65l-.75-.61Z"/><path d="M135.43,194.77v-2.29C136.7,193.67,136.7,193.67,135.43,194.77Z"/><path d="M138.11,194.82c-.09-1.14-.14-1.73-.2-2.48.32.07.73,0,.84.22C139.21,193.26,138.86,193.83,138.11,194.82Z"/><path d="M133.59,189.23c.11-.67,0-1.6,1.5-.76l-1.1,1.16Z"/><path d="M134.91,181.05c.29,1.25-.15,1.49-1.2,1.11Z"/><path d="M135.21,184.32l-.93,1.4-.45-.25.84-1.47Z"/><path d="M137.05,174.62c-.65.91-.65.91-1.73.33l1.8-.25Z"/><path d="M143.83,204.91c.89.15,1.48.25,1.43,1.34C144.28,206.38,144,205.87,143.83,204.91Z"/></g></g></svg>