<svg xmlns="http://www.w3.org/2000/svg" viewBox="0 0 174.44 259.69"><defs><style>.cls-1{fill:#fff;}</style></defs><g id="Layer_2" data-name="Layer 2"><g id="Layer_1-2" data-name="Layer 1"><path class="cls-1" d="M172.19,177.54a63.08,63.08,0,0,0-24.88-35.94c-15.82-11.29-33.42-14.55-52-10.85-1.92-2.08-3.53-4.06-5.39-5.77a15.35,15.35,0,0,1-3.49-3.78A11.26,11.26,0,0,0,83.21,118,24.55,24.55,0,0,0,71,113.41c-3.21-.33-6.42-.24-9.09,2.17l-11.53-4c-.78-5.72-4.77-8.28-9.32-10.26-1.88,1-2.49,2.38-2,4.24,4.64,2.51,4.64,2.51,5.4,4.3-1.53.38-3.29.48-3.8,2.39-.62,2.3,1.54,3,2.86,4.43-3.79,2.7-7.31.54-10.87-.26-.25.5-.49.91-.67,1.34-.4.94-.78,1.9-1.15,2.83a18.65,18.65,0,0,0,10.72,2.2,9.19,9.19,0,0,0,7-4.51l10,3.27c-.76,5.77,1.82,9.65,6.7,12.17a17,17,0,0,0,1.12,11.51,65.27,65.27,0,1,0,105.82,32.34ZM67.4,129c-2.59-1.38-3.36-2.45-3.88-5.34.78,0,1.53,0,2.28,0,1.25,0,2.46-.11,3.11-1.34a2.82,2.82,0,0,0-.5-3.32,6.83,6.83,0,0,1-.37-.6c2.55-.62,7.5.88,11.34,3.53A16.62,16.62,0,0,0,67.4,129ZM71,140c.09-1.42.16-2.39.24-3.72L75,137.52Zm10.31-9.87c-3.61-.66-3.61-.64-5.85,2.25l-1.86-.88c2.45-3.1,6.19-4.09,9-2.48C82.65,129.86,82.33,130.27,81.34,130.09ZM45.1,76.81c.39,1.06.06,2.51,1.68,2.51.63,0,1.71-.34,1.78-.69a2.81,2.81,0,0,0-.62-2.06C47.13,75.61,46.14,75.89,45.1,76.81ZM25,57.34c1-2.27,1.6-4.68,2.34-7,1.44-4.57,1.06-8.83-2.27-12.55-.1-.11-.11-.29-.22-.59,1.55-2.84,3.14-5.77,4.69-8.6,6.73.55,13,.13,18.5-4.54.64-5.49,1.32-11.26,2-17-3.22-1.55-6.14-3.21-9.24-4.41C34.13,0,27.11-.42,20.05.34A26.58,26.58,0,0,0,14.36,2c-.88.3-1.62,1-2.5,1.26A1.89,1.89,0,0,0,10.4,5.15c-.52,5-1.1,10-1.69,15C8.58,21.27,8.82,22,10,22.28a11,11,0,0,1,2.16,1c2.59,1.22,5.17,2.44,7.78,3.63a18.9,18.9,0,0,0,2.15.69c-1,1.77-2,3.33-2.76,5a3.7,3.7,0,0,1-3.05,2.23c-3.6.64-6.6,2.35-8.26,5.86A39.13,39.13,0,0,0,4.68,52.59,10.34,10.34,0,0,0,7.31,61a24.5,24.5,0,0,0,2.75,2.34c-.5,3.74-1,7.45-1.48,11.18-.1.86-.67,1.1-1.29,1.51A13,13,0,0,0,3.84,78.9c-2.38,3.34-2.5,7.23-2.51,11.22H6c.93-7.47.93-7.47,2.46-8.83.27.59.49,1.19.8,1.74,1.41,2.51,3.72,2.52,5.18,0,.35-.58.64-1.2,1.09-2,1.92,3.32,2.13,6.79,2.82,10.08,3.77.91,5-.24,4.33-4-.81-4.72-2.43-9-6.79-11.62.4-3.76.79-7.39,1.19-11.13C21.43,63.8,23.53,60.81,25,57.34ZM11.74,56.16l-.91.8a2.46,2.46,0,0,1-1.1-2.76c.68-3.44,1.37-6.88,2.22-10.27a6.54,6.54,0,0,1,3.5-4c1.47,5.26,2.49,5.65,6.63,2.58a2.51,2.51,0,0,1,1,2.45,27.06,27.06,0,0,1-4.6,13.42c-.17.24-.5.36-1,.71-.16-.56-.27-1-.39-1.36C16.06,54.34,14.3,53.85,11.74,56.16ZM37.31,85.24c.16-.21.46-.43.45-.65s-.31-.42-.56-.73l-.64.77Zm-2.89,26c.71-.1.84-1,.33-1.54-1-1.09-2.08-2.09-3.16-3.16L29,109.25c.72.72,1.2,1.59,1.88,1.79A8.65,8.65,0,0,0,34.42,111.25Zm-.85-25.06c1.14-2.57,1.14-2.57,0-3Zm-4.51-13c.9.63,1.63,1.65,3,1.34C31.32,73,31.32,73,29.06,73.19ZM27.87,97c-1.08-.43-1.69.45-2.24,1.24.23.92.57,1.76,1.66,1.72a1.26,1.26,0,0,0,1.3-1.41C28.55,98,28.27,97.18,27.87,97Zm-10.12,5a7.41,7.41,0,0,0-1.34,1.79,2,2,0,0,0,.35,1.68c.57.65,1.13.08,1.57-.4C19.42,103.91,19.37,103.5,17.75,102Zm-4.3,14.1c.9.44,1.62,1.08,2,.92,1.08-.43,1.32-1.45,1-2.92ZM11,100.72c-.15-.06-.61.27-.68.49s-.06.88.14,1A21.8,21.8,0,0,0,13,103.45c-.19-.91-.15-1.48-.41-1.77A4.28,4.28,0,0,0,11,100.72Zm-5.5,11.53c1.11,1,2,1.87,3.69,1.84l-2.43-4.84C6.29,110.43,5.9,111.37,5.53,112.25ZM7,104.87c-.56.69-.43,1.28.5,2.07l2-2.51A1.82,1.82,0,0,0,7,104.87ZM4.12,98c.55-2.28.49-2.34-2.1-2.2C2.18,98,2.18,98,4.12,98ZM1,123.59c1.81,2.83,2.58,2.94,4.87.85l-3.52-2.78ZM2.29,58c0-.3-.86-.8-1.22-.72-1.25.26-1,1.33-1.07,2.57C1.29,59.45,2.43,59.34,2.29,58Z"/><path d="M172.19,177.54a63.08,63.08,0,0,0-24.88-35.94c-15.82-11.29-33.42-14.55-52-10.85-1.92-2.08-3.53-4.06-5.39-5.77a15.35,15.35,0,0,1-3.49-3.78A11.26,11.26,0,0,0,83.21,118,24.55,24.55,0,0,0,71,113.41c-3.21-.33-6.42-.24-9.09,2.17l-11.53-4c-.78-5.72-4.77-8.28-9.32-10.26-1.88,1-2.49,2.38-2,4.24,4.64,2.51,4.64,2.51,5.4,4.3-1.53.38-3.29.48-3.8,2.39-.62,2.3,1.54,3,2.86,4.43-3.79,2.7-7.31.54-10.87-.26-.25.5-.49.91-.67,1.34-.4.94-.78,1.9-1.15,2.83a18.65,18.65,0,0,0,10.72,2.2,9.19,9.19,0,0,0,7-4.51l10,3.27c-.76,5.77,1.82,9.65,6.7,12.17a17,17,0,0,0,1.12,11.51,65.27,65.27,0,1,0,105.82,32.34ZM48.94,111.81c-.44-1.33-.89-2.66-1.47-4.41C49,108.82,49.42,110.16,48.94,111.81Zm12.21,7.42c1.55-.22,2.59.58,4,1.38C63,120.75,62.88,120.7,61.15,119.23Zm.83,5.52c.67,1.36,1.23,2.5,1.89,3.82C62.08,127.47,62,127.22,62,124.75ZM69.16,141a4,4,0,0,1-.19-.81,5.57,5.57,0,0,1,.31-1.12c.22.92.34,1.4.45,1.87ZM67.4,129c-2.59-1.38-3.36-2.45-3.88-5.34.78,0,1.53,0,2.28,0,1.25,0,2.46-.11,3.11-1.34a2.82,2.82,0,0,0-.5-3.32,6.83,6.83,0,0,1-.37-.6c2.55-.62,7.5.88,11.34,3.53A16.62,16.62,0,0,0,67.4,129ZM71,140c.09-1.42.16-2.39.24-3.72L75,137.52Zm10.31-9.87c-3.61-.66-3.61-.64-5.85,2.25l-1.86-.88c2.45-3.1,6.19-4.09,9-2.48C82.65,129.86,82.33,130.27,81.34,130.09ZM125.19,184c1.63,1.91,1.63,1.92.21,3.55a5,5,0,0,0-.49-.68,4.51,4.51,0,0,0-.67-.45ZM124,198.57l.39-.27,1.32,1.87C124,200.52,124.32,199.27,124,198.57Zm1.83-2.34c-.91.37-1.61.31-1.84-1.36l2,.88C125.93,196,125.91,196.2,125.83,196.23Zm25.28-10c.57,1.75.37,3.59.91,5.26a2.51,2.51,0,0,1,.15,2.16c-.34.75.06,1.9-.36,2.55s-1.47.78-2.2,1.21c-.22.13-.33.47-.5.74l1,.37-3.7,5.7c.72.88,1.58-1.27,2,.67-1.23,1.69-2.6,3.4-5.33,2.56-1.19,1.1-3.18-.87-4.29,1.21-.31.59-2,.08-2.17-.75-.31-1.33-1.43-1.71-2.31-2.5.28-.76.55-1.47.93-2.49l-2,.59-.75-1c.61-.73,1.22-1.46,1.84-2.18-.93-1.47-1.72-.86-2.46-.68l-1.2-1.59c-.58.87-1.79,1.08-1.35,2.41h-1.4c-.55-1.87-2.78-3.62-.28-5.69a8.33,8.33,0,0,1-1.43-1.92c-.38-1,.21-1.28,1.12-.92a14.29,14.29,0,0,1,0-3.21,5.72,5.72,0,0,0-.68-4.06,3.66,3.66,0,0,1-.07-3.1,15.31,15.31,0,0,0,.35-2.58l4.88-5.06a1.29,1.29,0,0,1,.53.35,3.57,3.57,0,0,1,.33,1.07c1-.46,2-1,3-1.32a5.72,5.72,0,0,1,1.56-.1c0,.26-.06.52-.08.78l1.9,1.07.81-1,4.57,2.07c.33-.58.59-1,1-1.64.6.41,1.41.67,1.54,1.13.43,1.47,1.42,1.34,2.57,1.29a19,19,0,0,1,2.73.27c-.7.83-1.65,1.48-1.57,2s1,1.08,2,1.93c0,.26.18,1,.35,2l-1.41-.44C151.35,184.34,150.84,185.4,151.11,186.21Z"/><path d="M40.82,2.59C34.13,0,27.11-.42,20.05.34A26.58,26.58,0,0,0,14.36,2c-.88.3-1.62,1-2.5,1.26A1.89,1.89,0,0,0,10.4,5.15c-.52,5-1.1,10-1.69,15C8.58,21.27,8.82,22,10,22.28a11,11,0,0,1,2.16,1c2.59,1.22,5.17,2.44,7.78,3.63a18.9,18.9,0,0,0,2.15.69c-1,1.77-2,3.33-2.76,5a3.7,3.7,0,0,1-3.05,2.23c-3.6.64-6.6,2.35-8.26,5.86A39.13,39.13,0,0,0,4.68,52.59,10.34,10.34,0,0,0,7.31,61a24.5,24.5,0,0,0,2.75,2.34c-.5,3.74-1,7.45-1.48,11.18-.1.86-.67,1.1-1.29,1.51A13,13,0,0,0,3.84,78.9c-2.38,3.34-2.5,7.23-2.51,11.22H6c.93-7.47.93-7.47,2.46-8.83.27.59.49,1.19.8,1.74,1.41,2.51,3.72,2.52,5.18,0,.35-.58.64-1.2,1.09-2,1.92,3.32,2.13,6.79,2.82,10.08,3.77.91,5-.24,4.33-4-.81-4.72-2.43-9-6.79-11.62.4-3.76.79-7.39,1.19-11.13,4.35-.55,6.45-3.54,8-7,1-2.27,1.6-4.68,2.34-7,1.44-4.57,1.06-8.83-2.27-12.55-.1-.11-.11-.29-.22-.59,1.55-2.84,3.14-5.77,4.69-8.6,6.73.55,13,.13,18.5-4.54.64-5.49,1.32-11.26,2-17C46.84,5.45,43.92,3.79,40.82,2.59ZM13.47,6.34A34.08,34.08,0,0,0,24.18,11,16,16,0,0,1,13.47,6.34ZM7.27,53.53,9.08,59C7.35,57.87,6.49,55,7.27,53.53Zm4.16,27.3c.17-1.49.33-3,.5-4.46A4.38,4.38,0,0,1,11.43,80.83ZM23.09,44.91a27.06,27.06,0,0,1-4.6,13.42c-.17.24-.5.36-1,.71-.16-.56-.27-1-.39-1.36-1.06-3.34-2.82-3.83-5.38-1.52l-.91.8a2.46,2.46,0,0,1-1.1-2.76c.68-3.44,1.37-6.88,2.22-10.27a6.54,6.54,0,0,1,3.5-4c1.47,5.26,2.49,5.65,6.63,2.58A2.51,2.51,0,0,1,23.09,44.91Zm2.34-.16c-.22-.87-.44-1.74-.75-3C26,42.8,26,43.77,25.43,44.75Zm.4-11.21-.42-.25,1.07-1.84.35.18ZM24.1,30.71a11.65,11.65,0,0,1,3.57-7A15.64,15.64,0,0,1,24.1,30.71ZM39.17,23.5c.83-2.21,1.46-2.5,3.1-1.4C41.65,23.5,40.54,23.69,39.17,23.5Zm-1.6-11.07,6.66-1.15C42.49,12.54,41,12.8,37.57,12.43Zm8.75-1.29-.41-.42,1.11-1,.12.15Z"/><path d="M34.42,111.25a8.65,8.65,0,0,1-3.51-.21c-.68-.2-1.16-1.07-1.88-1.79l2.56-2.7c1.08,1.07,2.16,2.07,3.16,3.16C35.26,110.28,35.13,111.15,34.42,111.25Z"/><path d="M5.86,124.44c-2.29,2.09-3.06,2-4.87-.85l1.35-1.93Z"/><path d="M48.56,78.63c-.07.35-1.15.69-1.78.69-1.62,0-1.29-1.45-1.68-2.51,1-.92,2-1.2,2.84-.24A2.81,2.81,0,0,1,48.56,78.63Z"/><path d="M9.22,114.09c-1.67,0-2.58-.79-3.69-1.84.37-.88.76-1.82,1.26-3Z"/><path d="M28.59,98.57a1.26,1.26,0,0,1-1.3,1.41c-1.09,0-1.43-.8-1.66-1.72.55-.79,1.16-1.67,2.24-1.24C28.27,97.18,28.55,98,28.59,98.57Z"/><path d="M18.33,105.08c-.44.48-1,1-1.57.4a2,2,0,0,1-.35-1.68A7.41,7.41,0,0,1,17.75,102C19.37,103.5,19.42,103.91,18.33,105.08Z"/><path d="M4.12,98C2.18,98,2.18,98,2,95.79,4.61,95.65,4.67,95.71,4.12,98Z"/><path d="M15.46,117c-.39.16-1.11-.48-2-.92l3-2C16.78,115.58,16.54,116.6,15.46,117Z"/><path d="M13,103.45a21.8,21.8,0,0,1-2.47-1.22c-.2-.14-.23-.7-.14-1s.53-.55.68-.49a4.28,4.28,0,0,1,1.52,1C12.81,102,12.77,102.54,13,103.45Z"/><path d="M2.29,58c.14,1.39-1,1.5-2.29,1.85.08-1.24-.18-2.31,1.07-2.57C1.43,57.15,2.26,57.65,2.29,58Z"/><path d="M9.47,104.43l-2,2.51c-.93-.79-1.06-1.38-.5-2.07A1.82,1.82,0,0,1,9.47,104.43Z"/><path d="M32.07,74.53c-1.38.31-2.11-.71-3-1.34C31.32,73,31.32,73,32.07,74.53Z"/><path d="M33.57,86.19v-3C34.71,83.62,34.71,83.62,33.57,86.19Z"/><path d="M37.76,84.59c0,.22-.29.44-.45.65l-.75-.61.64-.77C37.45,84.17,37.76,84.38,37.76,84.59Z"/><path d="M135.44,194.77v-2.29C136.71,193.67,136.71,193.67,135.44,194.77Z"/><path d="M138.11,194.83c-.09-1.15-.14-1.74-.2-2.49.32.07.73,0,.84.22C139.21,193.26,138.86,193.83,138.11,194.83Z"/><path d="M133.59,189.23c.11-.67,0-1.6,1.5-.75l-1.1,1.15Z"/><path d="M134.91,181.05c.3,1.25-.15,1.49-1.2,1.11Z"/><path d="M135.21,184.32l-.93,1.4-.44-.25c.27-.49.55-1,.83-1.47Z"/><path d="M137.06,174.62c-.66.91-.66.91-1.74.33l1.81-.25Z"/><path d="M143.83,204.91c.89.15,1.48.25,1.43,1.34C144.28,206.38,144,205.87,143.83,204.91Z"/></g></g></svg>