<svg id="Layer_1" data-name="Layer 1" xmlns="http://www.w3.org/2000/svg" viewBox="0 0 729.65 307.54"><defs><style>.cls-1{fill:#fff;}</style></defs><path d="M764.56,586.85c.07-.57.13-1,.17-1.52a6.9,6.9,0,0,1,5.12-6.3c4.14-1.29,8.35-2,12.73-.95a70.86,70.86,0,0,1,16.51,6,79.75,79.75,0,0,1,10.45,6.32,3.34,3.34,0,0,0,3.66.43A90.06,90.06,0,0,0,830.07,582c3.83-2.66,6.81-2.62,10.41.44,1.73,1.47,3.27,3.16,4.88,4.77.5.51.9,1.13,1.43,1.61a8.17,8.17,0,0,0,8,2.16,22.08,22.08,0,0,0,6.23-2.73c2.74-1.71,5.45-3.49,8.15-5.27s5.58-3.72,8.39-5.56a13.1,13.1,0,0,1,7.14-2.07,21.84,21.84,0,0,1,15.07,5.74,12,12,0,0,1,3.55,4.92,26.48,26.48,0,0,0,3.39,6.31,13,13,0,0,1,2,5.34,4.7,4.7,0,0,1-2.21,5.27,4.84,4.84,0,0,1-6-.76,83.94,83.94,0,0,1-6.17-7,13.18,13.18,0,0,0-6.46-4.28c-3.4-1.18-6.36-.44-9.2,1.44-2.3,1.52-4.55,3.11-6.87,4.6-3,1.94-6.07,3.85-9.15,5.7a33.9,33.9,0,0,1-9,3.52,9.48,9.48,0,0,1-7.62-.95c-2.14-1.3-4.64-2-6.6-3.61-1.46-1.24-3-2.41-4.47-3.6-.65-.51-1.32-1-2-1.5l-11.65,6c.08,1.5.13,3,.25,4.58.38,5-1.58,8.84-5.41,11.91a62.15,62.15,0,0,1-19.65,10.26,79.33,79.33,0,0,1-16.87,3.5,50.77,50.77,0,0,1-18.19-1.41,20.61,20.61,0,0,1-8.22-4.29,14.25,14.25,0,0,1-4.59-6.33c-.27-.78-.63-1.53-1-2.46a4.86,4.86,0,0,0-1.35.44c-18.07,13-38,22.3-59.12,29.07a144.84,144.84,0,0,1-17,4.68,89.82,89.82,0,0,1-10.32,1.42,110,110,0,0,1-17.6.06c-13.56-1.16-26-5.41-37-13.58a47.53,47.53,0,0,1-11.3-12c-4.43-6.69-7.71-13.81-8.94-21.79a64.83,64.83,0,0,1-.59-16.82c1.76-16.78,7.49-32.14,15.82-46.66,6.41-11.19,14.33-21.27,22.86-30.89,2.55-2.87,5.13-5.71,7.71-8.56a185.27,185.27,0,0,1,33.28-28.45,205.08,205.08,0,0,1,36.93-20,156.35,156.35,0,0,1,44.08-11.25,97.24,97.24,0,0,1,32.53,1.76,57,57,0,0,1,21.24,10.18,18,18,0,0,1,2.67,2.41c8.42,9.38,14.25,20.08,16.62,32.57.61,3.18,1.5,6.29,2.14,9.46a15.74,15.74,0,0,1,.34,4.27,8.31,8.31,0,0,1-6.48,7.3,7.85,7.85,0,0,1-8.78-4.14c-2.35-4.54-3.06-9.31-1.2-14.24a7,7,0,0,0,.29-3.85c-1.77-10.35-7.68-17.64-16.66-22.61a54.3,54.3,0,0,0-20.17-6.14c-2.5-.29-5-.56-7.51-.71A101,101,0,0,0,724,464.81c-15.75,4.88-30.86,11.2-44.8,20.13a172.31,172.31,0,0,0-39,33.83A212,212,0,0,0,613.91,559a80.45,80.45,0,0,0-8.6,28.06,53.2,53.2,0,0,0,1.83,21.37A36.26,36.26,0,0,0,623,629.15a52,52,0,0,0,21.62,7.33,103.36,103.36,0,0,0,26.53-.57,146,146,0,0,0,36-9.47,132.29,132.29,0,0,0,19.51-10c6.64-4.08,13.15-8.36,19.71-12.58,1.3-.84,2.54-1.81,3.81-2.7a17.79,17.79,0,0,0,5.54-5.52,26.73,26.73,0,0,1,4.52-5.08C761.52,589.31,763,588.22,764.56,586.85Zm5.21,14.66c-1.56,2-2.19,4.39-2.85,6.8a3.73,3.73,0,0,0,1.19,3.9,14,14,0,0,0,7.32,3.55c5,1,10,.34,15-.58a35.23,35.23,0,0,0,11.44-4.09,11.37,11.37,0,0,0,4.25-3.78c.37-.62.65-1.29-.09-1.87C793.54,608.36,781.58,606.62,769.77,601.51Zm22.86-7.12c-4-1.43-7.77-2.83-11.78-3.24-.48,0-1.18-.32-1.5.65,2.28,1.93,5.12,2.37,7.88,2.9C790.22,595.26,790.63,595.16,792.63,594.39Z" transform="translate(-584.19 -361.63)"/><path d="M960.83,599.86c.64-.35,1.28-.67,1.89-1L1007,571.93a15.27,15.27,0,0,0,4.65-3.87,6.91,6.91,0,0,1,2.86-2.06c.94-.39,2.15-.12,3.13-.45s1.81-1.17,2.8-1.55a3.2,3.2,0,0,1,3.76,1.36,3.26,3.26,0,0,1-1,4.15,4,4,0,0,1-1.62.7,2.77,2.77,0,0,0-2.13,1.12,5.77,5.77,0,0,1-4.64,2.38,7.76,7.76,0,0,0-4,1.5c-10.87,7.24-21.93,14.2-32.35,22.13-3.23,2.46-6.72,4.6-10.08,6.9-.77.52-1.5,1.11-2.36,1.74a11,11,0,0,0,.89,1.28c10.28,11,21.32,21.14,34.52,28.54a10,10,0,0,1,.27,17,50.27,50.27,0,0,1-11,5.19,211.34,211.34,0,0,1-44.54,9.58,228.22,228.22,0,0,1-38,1.31,68.75,68.75,0,0,1-14.9-2.27,15.29,15.29,0,0,1-7.72-4.34,5.22,5.22,0,0,1-1.07-5.63,13.64,13.64,0,0,1,3.47-5.4c1.91-1.82,3.87-3.58,5.86-5.3a258.28,258.28,0,0,1,26.48-20.37c5.2-3.43,10.56-6.62,15.84-9.92l9.13-5.74c.5-.32,1-.68,1.6-1.12a8.73,8.73,0,0,0-.75-1.62,75.72,75.72,0,0,1-7-11.72c-4.84-9.64-9.67-19.28-13.41-29.43a236.24,236.24,0,0,1-12.18-46.12c-1.12-7.36-1.84-14.73-2.32-22.15-.3-4.56-.48-9.1-.41-13.66a192.37,192.37,0,0,1,4-36.75c1.45-6.91,2.89-13.84,4.58-20.69a119.13,119.13,0,0,1,14.62-35.42,116.16,116.16,0,0,1,7.63-11.32A58.09,58.09,0,0,1,955.93,367c7.37-4.62,15.45-6.48,24.08-4.71a34.79,34.79,0,0,1,15.78,8.23,71.3,71.3,0,0,1,16.77,21.83c2,3.84,4,7.66,5.86,11.53a26.39,26.39,0,0,1,1.8,4.69,54.79,54.79,0,0,0,2.48,7.1,47.88,47.88,0,0,1,2.22,7.19,9.17,9.17,0,0,1-.35,5.66,6.77,6.77,0,0,1-7.16,4.25,5.17,5.17,0,0,1-3.79-2.47c-1.28-2-2-4.14-1.14-6.48a9.25,9.25,0,0,0,.2-4.61,24.85,24.85,0,0,1-.42-3.92,33.75,33.75,0,0,0-3.32-14.94,62,62,0,0,0-9.81-15.84,37.13,37.13,0,0,0-11.6-8.95A25.86,25.86,0,0,0,968.67,374a40,40,0,0,0-17.45,10.3,58,58,0,0,0-13.8,20.83,185.19,185.19,0,0,0-10.27,41.42,244.35,244.35,0,0,0-1.76,45.23c1.3,26.91,6.38,53,16.92,78a115.32,115.32,0,0,0,16.86,28.75c.3.36.64.71,1,1A3.88,3.88,0,0,0,960.83,599.86ZM952,615.79c-1,.66-1.86,1.16-2.65,1.7-6.54,4.44-13,9-19.65,13.3-5.55,3.59-10.86,7.47-16,11.58a117,117,0,0,0-13.35,12c-1.52,1.65-1.36,2.94.52,4.09a13.34,13.34,0,0,0,2.63,1.12,18.94,18.94,0,0,0,6.4.72A287.19,287.19,0,0,0,938.64,659a336,336,0,0,0,39.42-6,16.24,16.24,0,0,0,3.1-.9,10.33,10.33,0,0,0,5.56-5.37,1.89,1.89,0,0,0-.75-2.51c-.39-.27-.86-.43-1.26-.68-3.55-2.24-7.2-4.32-10.6-6.76a107,107,0,0,1-17.06-15.4Z" transform="translate(-584.19 -361.63)"/><path d="M1103.58,602.8c-3.51,3-6.38,6.61-10.2,9.15a44.39,44.39,0,0,1-12.05,5.45,49.75,49.75,0,0,1-13.42,2.29,46.34,46.34,0,0,1-13.3-1.85c-.25,1.11-.51,2-.65,2.9a25.44,25.44,0,0,1-3.23,9.09,12.63,12.63,0,0,1-19,3.51,20.57,20.57,0,0,1-3.37-3.22c-6.7-8.59-8.81-18.25-6.11-28.79a17.8,17.8,0,0,1,8-11.11,9.22,9.22,0,0,1,5.85-1.32c3.85.37,6,3.1,5.42,7-.14.91-.35,1.81-.5,2.63.28.18.4.3.45.27,3.87-1.71,7.46-.79,11,1.09a46.2,46.2,0,0,0,10.93,4.5,22.89,22.89,0,0,0,13.44-.57,48.27,48.27,0,0,0,16.31-9.61c2.65-2.42,5.44-4.7,8.22-7a5.84,5.84,0,0,1,8.14.22,24.65,24.65,0,0,1,2.15,2.41,41.57,41.57,0,0,0,7.69,7,17.47,17.47,0,0,0,13.33,2.92,55.74,55.74,0,0,0,12.4-3.59,10.52,10.52,0,0,0,2.51-1.37c3.1-2.46,6.18-4.94,9.19-7.5,2.56-2.17,5-4.54,7.56-6.65a16.69,16.69,0,0,1,4.87-3,9.53,9.53,0,0,1,8,.82c2.18,1.25,4.41,2.44,6.5,3.84,3.64,2.43,6.89,1.92,10.18-.76,3.52-2.88,7.19-5.59,10.84-8.31,2.11-1.58,4.27-3.1,6.48-4.54a33.84,33.84,0,0,1,14.13-5,16.85,16.85,0,0,1,11.36,2.48,35.24,35.24,0,0,1,11,10.16c3.89,5.76,7.93,11.42,11.92,17.11,1.59,2.26,3.19,4.5,4.84,6.71A84.23,84.23,0,0,0,1280.19,616a86.69,86.69,0,0,0,26,14.29c.9.3,1.81.62,2.68,1,5.62,2.55,6.67,9.26,1.94,13.22a13,13,0,0,1-10.34,3.21,32.46,32.46,0,0,1-15.25-5.88c-2.41-1.77-5.06-3.2-7.64-4.73a89.6,89.6,0,0,1-32.76-33.57c-2.48-4.38-5-8.74-7.46-13.13a41.93,41.93,0,0,0-5.9-7.68,11,11,0,0,0-1.36-1.18,3.57,3.57,0,0,0-4.32-.45c-2.3,1.29-4.66,2.48-6.93,3.81a155.8,155.8,0,0,0-22,16.13,14.9,14.9,0,0,1-10.57,3.78,13.46,13.46,0,0,1-9.37-3.92c-1.1-1.11-2.12-2.29-3.17-3.44-.65-.7-1.26-1.45-2-2.1a1.67,1.67,0,0,0-2.56-.08c-2.24,1.81-4.4,3.71-6.67,5.47-3.22,2.49-6.49,4.94-9.8,7.31a50.24,50.24,0,0,1-11.8,6.05c-8.88,3.35-17.23,1.7-25.11-3-3.7-2.2-7.13-4.84-10.69-7.28C1104.69,603.48,1104.19,603.19,1103.58,602.8Zm-65.18.47c-.53.22-.68.24-.74.32-.36.47-.73.94-1.05,1.44a10.85,10.85,0,0,0,.79,12,3.48,3.48,0,0,0,.53.48A1.34,1.34,0,0,0,1040,617a6.21,6.21,0,0,0,.21-4.53A25.6,25.6,0,0,1,1038.4,603.27Z" transform="translate(-584.19 -361.63)"/><path class="cls-1" d="M769.77,601.51c11.81,5.11,23.77,6.85,36.24,3.93.74.58.46,1.25.09,1.87a11.37,11.37,0,0,1-4.25,3.78,35.23,35.23,0,0,1-11.44,4.09c-5,.92-9.94,1.54-15,.58a14,14,0,0,1-7.32-3.55,3.73,3.73,0,0,1-1.19-3.9C767.58,605.9,768.21,603.48,769.77,601.51Z" transform="translate(-584.19 -361.63)"/><path class="cls-1" d="M792.63,594.39c-2,.77-2.41.87-5.4.31-2.76-.53-5.6-1-7.88-2.9.32-1,1-.7,1.5-.65C784.86,591.56,788.6,593,792.63,594.39Z" transform="translate(-584.19 -361.63)"/><path class="cls-1" d="M952,615.79l5,5.56a107,107,0,0,0,17.06,15.4c3.4,2.44,7,4.52,10.6,6.76.4.25.87.41,1.26.68a1.89,1.89,0,0,1,.75,2.51,10.33,10.33,0,0,1-5.56,5.37,16.24,16.24,0,0,1-3.1.9,336,336,0,0,1-39.42,6,287.19,287.19,0,0,1-28.73,1.37,18.94,18.94,0,0,1-6.4-.72,13.34,13.34,0,0,1-2.63-1.12c-1.88-1.15-2-2.44-.52-4.09a117,117,0,0,1,13.35-12c5.17-4.11,10.48-8,16-11.58,6.64-4.29,13.11-8.86,19.65-13.3C950.18,617,951,616.45,952,615.79Z" transform="translate(-584.19 -361.63)"/><path class="cls-1" d="M1038.4,603.27a25.6,25.6,0,0,0,1.82,9.2A6.21,6.21,0,0,1,1040,617a1.34,1.34,0,0,1-2.08.55,3.48,3.48,0,0,1-.53-.48,10.85,10.85,0,0,1-.79-12c.32-.5.69-1,1.05-1.44C1037.72,603.51,1037.87,603.49,1038.4,603.27Z" transform="translate(-584.19 -361.63)"/></svg>