<svg xmlns="http://www.w3.org/2000/svg" viewBox="0 0 212.38 224.02"><g id="Layer_2" data-name="Layer 2"><g id="Layer_1-2" data-name="Layer 1"><path d="M48.41,67.85a7.52,7.52,0,0,1-7.23,1.41,9.78,9.78,0,0,1-3.33-1.8,33.62,33.62,0,0,1-8.13-10.88,14.32,14.32,0,0,1-.4-10.76,6.35,6.35,0,0,0-.32-5c-.94-2-1.67-4.13-2.62-6.53-1.42,1.19-2.56,2.24-3.81,3.16s-2.78,1.87-4.2,2.75-2.72,1.61-4.2,2.47a15.12,15.12,0,0,1-1.33-.8C9,38.94,5.21,36,1.35,33.16c-1.1-.81-1.69-1.64-1.14-3A2.25,2.25,0,0,0,.45,29c-.7-3,.6-5.51,1.81-8a45.86,45.86,0,0,1,11-14.67,49.63,49.63,0,0,1,4.45-3.24C19,2.21,20.27,1.45,21.49.57,22.29,0,23-.28,23.84.41c4.28,3.34,8.59,6.64,12.69,9.81a18.82,18.82,0,0,1,.27,3.56,22.78,22.78,0,0,1-1.16,5.81c-1.23,3-2.87,5.86-4.56,9.21,1.23,3,2.66,6.42,4.13,10a13.68,13.68,0,0,0,1.7,0A7.73,7.73,0,0,1,44,41.33a45.7,45.7,0,0,1,7.56,10.74,12.11,12.11,0,0,1,.88,9.57L60.82,68c8.62-4.49,15.85-1.31,22.7,3.5,2.57,1.81,3.26,3.63,3.94,7.31.48.21,1,.5,1.62.7,2.12.71,4.26,1.35,6.37,2.1,1.92.68,3.64,1.24,5.52-.41a6.64,6.64,0,0,1,3.62-1,25.21,25.21,0,0,1,15,3.24,11.4,11.4,0,0,1,4.61,4.42,6.06,6.06,0,0,0,1.49,1.45A44.49,44.49,0,0,1,130.07,93a3.1,3.1,0,0,0,3.36,1A55.84,55.84,0,0,1,148,92.65c25.52,1.11,44.92,12.64,56.83,35.21,20,38-1.16,85-44.29,94.62-35.83,8-71.84-15.83-78.31-51.94-4.13-23.06,2.44-43,19-59.61.39-.4.8-.79,1.2-1.18,0,0,.07-.14-.08.14-.25-3.48-.48-6.63-.74-10.18-4.4-1.93-6.89-5.55-6.25-11.15l-9.47-2.8c-.34.15-.55.17-.62.28-2.69,3.85-6.57,4.63-10.84,4a27.19,27.19,0,0,1-12.55-5.64A9.25,9.25,0,0,1,58,76.73a2.69,2.69,0,0,0-.61-1.89C54.45,72.46,51.45,70.2,48.41,67.85Zm115.13,79.28c2.57,2.18,1.26,5.11,1.49,7.74-1.65.75-1.65.75.26,3.26-2.86,2.17,0,3.8.53,6.06l2.77-2.71c.45.54.79,1.34,1.22,1.38.65.08,1.38-.5,1.82.52-.56.62-1.14,1.24-1.74,1.89l.91,1.56,2.11-.44c-.75,1.62-1.16,3,.91,3.51.13,0,.22.4.26.63.22,1.32,1.22,1.52,2.35,1.65,1.07-2,3.17-1.26,4.56-1.15,2.35.17,3.65-.88,4.88-2.42.23-.28,0-.9,0-1.5l-1.5.79-.32-.34,3.77-5.67-1.36-.56a16,16,0,0,0,2.13-1.22c.53-.41,1.19-.93,1.3-1.51a6.44,6.44,0,0,0,0-3.29,5.35,5.35,0,0,1-.26-3.56c-1.69-1.56-.2-3.37-.59-5h1.37c.56-2-1.22-2.3-2.25-3.16a4.49,4.49,0,0,1,.55-1.36,3.89,3.89,0,0,1,1.18-.62,4.62,4.62,0,0,0-2.75-.7,2.17,2.17,0,0,1-2.48-1.19c-.27-.48-.94-.74-1.49-1.15L182.12,140a23.75,23.75,0,0,1-3.58-1.58c-1-.64-1.33.24-1.73.48l-2.18-.66.58-.75c-1.21-.92-1.94-.54-2.41.7h-2.06L169.25,137c-1.4,2.18-2.76,4.11-5.06,5.13.21.63.71,1.32.6,1.88a20.16,20.16,0,0,1-1.19,3.19l-1.67,2.34,1.22,1.32a1.65,1.65,0,0,0,.9-2.21C163.91,148.14,163.71,147.64,163.54,147.13ZM62.75,77.81c.25.6.29,1,.49,1.15a21,21,0,0,0,14,6.42,3.26,3.26,0,0,0,3.16-1.53c-.54-.42-1-.77-1.5-1.19-1.86-1.76-1.43-4,1-4.9.63-.25,1.29-.43,2-.66-1.53-2.42-3.74-3.82-7.74-5-4.52-1.32-6.6-1.51-8.28-.72,1,1.41,2.48,2.71,1.59,4.69S64.69,77.7,62.75,77.81ZM33.11,49.5l-.57.31a22.37,22.37,0,0,0,1.15,4.54,28.13,28.13,0,0,0,7.62,9.12c.67.55,1.44,1,2.46.3a26.39,26.39,0,0,1-.42-3c-.06-2.09,1.11-3.07,3.18-2.79.6.09,1.19.22,1.95.36A7.24,7.24,0,0,0,48.3,57a33.82,33.82,0,0,0-7.78-11.66A8.84,8.84,0,0,0,38,44.18c0,1.47.06,2.57,0,3.66-.17,2.32-1.45,3.11-3.57,2.27C33.94,49.94,33.53,49.71,33.11,49.5Zm67.3,40.89c.29,2.63,1.12,3.72,3.8,4.94a19.38,19.38,0,0,1,11.71-7.6,22.78,22.78,0,0,0-11.16-3.08C106.92,88,106.83,90.44,100.41,90.39Zm12.19,7.83c1.26-2.61,3.18-3.24,5.67-2.62.37.09.87-.36,1.3-.57-.33-.34-.63-.94-1-1-3.23-.43-5.77.89-8.27,3.28ZM26.77,26.79a10.47,10.47,0,0,0,2.92,7A15.49,15.49,0,0,0,26.77,26.79ZM44.9,66.57l-5.57-1.12C41.51,67.21,42.86,67.51,44.9,66.57ZM108.18,105l3-2-3-.72ZM31.93,14.11c-1.83,1.09-1.88,1.5-.46,3.35A2.66,2.66,0,0,0,31.93,14.11ZM7,29a8.34,8.34,0,0,0,4.83-3.92ZM101.2,87.79c-1.46-1.53-1.46-1.53-3.33-1.15ZM63.75,74.67c-1.53-2-2-2.25-4-2.52ZM98.89,91.8c-.22,1.38,0,2.52,1.51,3ZM24,7l-.62-.13c-.25,1-.49,2.06-.73,3.1l.37.1C23.37,9.08,23.7,8.05,24,7ZM84.94,75.21c.42,1.58.73,2.72,1.16,4.33C86.39,77.06,86.39,77.06,84.94,75.21ZM38.88,41.84l2.6.91C40.7,41.49,40,41.1,38.88,41.84ZM161.66,158.32c.37,1.45.89,1.75,1.78,1.31.09,0,.09-.25.18-.51Zm.56,3.33-.46.36c.4.58,0,1.76,1.64,1.64Zm8.88-24.09c.23-.46.42-.7.42-.93s-.34-.45-.42-.42c-.25.1-.57.3-.61.51S170.78,137.14,171.1,137.56Zm-139-104-.26.11L32.4,35l.27-.11Z"/></g></g></svg>