<svg xmlns="http://www.w3.org/2000/svg" viewBox="0 0 212.37 224.01"><defs><style>.cls-1{fill:#fff;}</style></defs><g id="Layer_2" data-name="Layer 2"><g id="Layer_1-2" data-name="Layer 1"><path class="cls-1" d="M204.77,127.86c-11.9-22.57-31.31-34.11-56.82-35.21A55.48,55.48,0,0,0,133.42,94a3.05,3.05,0,0,1-3.35-1,44.75,44.75,0,0,0-4.39-3.68,5.84,5.84,0,0,1-1.48-1.45,11.36,11.36,0,0,0-4.62-4.42,25.25,25.25,0,0,0-15-3.25c-1.25.12-2.77.28-3.63,1-1.87,1.65-3.6,1.08-5.51.4-2.11-.75-4.26-1.38-6.38-2.09-.58-.2-1.14-.49-1.62-.7-.68-3.68-1.36-5.51-3.94-7.31-6.85-4.81-14.08-8-22.7-3.5-2.72-2.08-5.56-4.23-8.36-6.36a12.15,12.15,0,0,0-.87-9.57A46,46,0,0,0,44,41.32a7.71,7.71,0,0,0-7.12-2.58,13.65,13.65,0,0,1-1.7,0c-1.46-3.53-2.89-7-4.13-10,1.69-3.35,3.33-6.19,4.56-9.2a22.54,22.54,0,0,0,1.17-5.81,18.05,18.05,0,0,0-.28-3.56c-4.1-3.17-8.4-6.48-12.68-9.81C23-.28,22.28,0,21.49.56c-1.22.89-2.53,1.65-3.77,2.51a52.67,52.67,0,0,0-4.45,3.24A45.83,45.83,0,0,0,2.26,21C1,23.48-.25,26,.45,29A2.11,2.11,0,0,1,.2,30.14c-.54,1.38,0,2.21,1.14,3C5.2,36,9,38.94,12.83,41.82a14.5,14.5,0,0,0,1.34.81c1.47-.87,2.85-1.64,4.19-2.47s2.86-1.77,4.21-2.76,2.38-2,3.8-3.15c.95,2.39,1.68,4.51,2.63,6.52a6.4,6.4,0,0,1,.32,5,14.3,14.3,0,0,0,.4,10.77,33.69,33.69,0,0,0,8.13,10.88,9.83,9.83,0,0,0,3.33,1.79,7.5,7.5,0,0,0,7.23-1.41c3,2.36,6,4.62,8.93,7a2.71,2.71,0,0,1,.62,1.9,9.27,9.27,0,0,0,3.82,7.65A27.27,27.27,0,0,0,74.34,90c4.26.65,8.15-.13,10.83-4,.08-.11.28-.13.62-.28l9.48,2.79c-.65,5.6,1.84,9.23,6.24,11.16.26,3.53.5,6.66.75,10.11l-1.13,1.1c-16.52,16.63-23.08,36.56-18.95,59.61,6.46,36.12,42.48,59.91,78.31,51.94C203.61,212.88,224.79,165.82,204.77,127.86ZM46.53,58c-2.08-.28-3.24.69-3.18,2.78a22.27,22.27,0,0,0,.42,3c-1,.76-1.79.26-2.46-.3a27.91,27.91,0,0,1-7.62-9.12,21.49,21.49,0,0,1-1.15-4.53l.57-.31c.42.2.83.44,1.26.61,2.12.84,3.39,0,3.57-2.27.08-1.09,0-2.19,0-3.67a8.47,8.47,0,0,1,2.56,1.2A33.66,33.66,0,0,1,48.3,57a6.79,6.79,0,0,1,.17,1.34C47.72,58.22,47.13,58.08,46.53,58ZM78.91,82.65c.45.42,1,.77,1.49,1.2a3.24,3.24,0,0,1-3.15,1.53,21,21,0,0,1-14-6.42,4.14,4.14,0,0,1-.49-1.15c1.93-.11,3.8.17,4.65-1.74s-.6-3.28-1.59-4.69c1.68-.79,3.76-.6,8.28.73,4,1.17,6.2,2.57,7.74,5-.68.23-1.33.41-2,.66C77.48,78.71,77.05,80.9,78.91,82.65ZM104.2,95.32c-2.67-1.21-3.51-2.3-3.79-4.93,6.41,0,6.51-2.36,4.35-5.74a22.6,22.6,0,0,1,11.16,3.08A19.43,19.43,0,0,0,104.2,95.32Zm4,9.63v-2.77l3,.73Zm10.1-9.36c-2.5-.61-4.41,0-5.67,2.63l-2.31-.9c2.49-2.39,5-3.72,8.27-3.28.37,0,.67.65,1,1C119.13,95.23,118.63,95.68,118.27,95.59Z"/><path d="M204.77,127.86c-11.9-22.57-31.31-34.11-56.82-35.21A55.48,55.48,0,0,0,133.42,94a3.05,3.05,0,0,1-3.35-1,44.75,44.75,0,0,0-4.39-3.68,5.84,5.84,0,0,1-1.48-1.45,11.36,11.36,0,0,0-4.62-4.42,25.25,25.25,0,0,0-15-3.25c-1.25.12-2.77.28-3.63,1-1.87,1.65-3.6,1.08-5.51.4-2.11-.75-4.26-1.38-6.38-2.09-.58-.2-1.14-.49-1.62-.7-.68-3.68-1.36-5.51-3.94-7.31-6.85-4.81-14.08-8-22.7-3.5-2.72-2.08-5.56-4.23-8.36-6.36a12.15,12.15,0,0,0-.87-9.57A46,46,0,0,0,44,41.32a7.71,7.71,0,0,0-7.12-2.58,13.65,13.65,0,0,1-1.7,0c-1.46-3.53-2.89-7-4.13-10,1.69-3.35,3.33-6.19,4.56-9.2a22.54,22.54,0,0,0,1.17-5.81,18.05,18.05,0,0,0-.28-3.56c-4.1-3.17-8.4-6.48-12.68-9.81C23-.28,22.28,0,21.49.56c-1.22.89-2.53,1.65-3.77,2.51a52.67,52.67,0,0,0-4.45,3.24A45.83,45.83,0,0,0,2.26,21C1,23.48-.25,26,.45,29A2.11,2.11,0,0,1,.2,30.14c-.54,1.38,0,2.21,1.14,3C5.2,36,9,38.94,12.83,41.82a14.5,14.5,0,0,0,1.34.81c1.47-.87,2.85-1.64,4.19-2.47s2.86-1.77,4.21-2.76,2.38-2,3.8-3.15c.95,2.39,1.68,4.51,2.63,6.52a6.4,6.4,0,0,1,.32,5,14.3,14.3,0,0,0,.4,10.77,33.69,33.69,0,0,0,8.13,10.88,9.83,9.83,0,0,0,3.33,1.79,7.5,7.5,0,0,0,7.23-1.41c3,2.36,6,4.62,8.93,7a2.71,2.71,0,0,1,.62,1.9,9.27,9.27,0,0,0,3.82,7.65A27.27,27.27,0,0,0,74.34,90c4.26.65,8.15-.13,10.83-4,.08-.11.28-.13.62-.28l9.48,2.79c-.65,5.6,1.84,9.23,6.24,11.16.26,3.53.5,6.66.75,10.11l-1.13,1.1c-16.52,16.63-23.08,36.56-18.95,59.61,6.46,36.12,42.48,59.91,78.31,51.94C203.61,212.88,224.79,165.82,204.77,127.86ZM7,29l4.84-3.92A8.36,8.36,0,0,1,7,29ZM23,10.1,22.67,10c.25-1,.49-2.06.73-3.09L24,7C23.7,8.05,23.37,9.07,23,10.1Zm3.73,16.69a15.32,15.32,0,0,1,2.91,7A10.46,10.46,0,0,1,26.77,26.79ZM31.92,14.1a2.65,2.65,0,0,1-.45,3.35C30.05,15.61,30.1,15.2,31.92,14.1Zm9.56,28.65-2.6-.92C40,41.1,40.69,41.49,41.48,42.75Zm-9.66-9.09.27-.11c.19.46.38.92.58,1.38L32.4,35Zm7.51,31.79,5.57,1.12C42.85,67.5,41.51,67.2,39.33,65.45ZM46.53,58c-2.08-.28-3.24.69-3.18,2.78a22.27,22.27,0,0,0,.42,3c-1,.76-1.79.26-2.46-.3a27.91,27.91,0,0,1-7.62-9.12,21.49,21.49,0,0,1-1.15-4.53l.57-.31c.42.2.83.44,1.26.61,2.12.84,3.39,0,3.57-2.27.08-1.09,0-2.19,0-3.67a8.47,8.47,0,0,1,2.56,1.2A33.66,33.66,0,0,1,48.3,57a6.79,6.79,0,0,1,.17,1.34C47.72,58.22,47.13,58.08,46.53,58ZM59.72,72.14c2,.27,2.5.57,4,2.53ZM78.91,82.65c.45.42,1,.77,1.49,1.2a3.24,3.24,0,0,1-3.15,1.53,21,21,0,0,1-14-6.42,4.14,4.14,0,0,1-.49-1.15c1.93-.11,3.8.17,4.65-1.74s-.6-3.28-1.59-4.69c1.68-.79,3.76-.6,8.28.73,4,1.17,6.2,2.57,7.74,5-.68.23-1.33.41-2,.66C77.48,78.71,77.05,80.9,78.91,82.65Zm7.19-3.11c-.44-1.62-.74-2.76-1.17-4.33C86.39,77.06,86.39,77.06,86.1,79.54Zm11.76,7.1c1.88-.39,1.88-.39,3.34,1.15Zm1,5.16,1.5,3C98.91,94.31,98.67,93.17,98.89,91.8Zm5.31,3.52c-2.67-1.21-3.51-2.3-3.79-4.93,6.41,0,6.51-2.36,4.35-5.74a22.6,22.6,0,0,1,11.16,3.08A19.43,19.43,0,0,0,104.2,95.32Zm4,9.63v-2.77l3,.73Zm10.1-9.36c-2.5-.61-4.41,0-5.67,2.63l-2.31-.9c2.49-2.39,5-3.72,8.27-3.28.37,0,.67.65,1,1C119.13,95.23,118.63,95.68,118.27,95.59Zm52.82,40.62c.09,0,.43.27.43.41s-.2.48-.42.94c-.33-.42-.65-.67-.61-.84S170.85,136.3,171.09,136.21ZM161.76,162l.46-.36,1.18,2C161.71,163.76,162.16,162.58,161.76,162Zm1.68-2.38c-.89.44-1.42.13-1.79-1.32l2,.8C163.53,159.37,163.53,159.58,163.44,159.63Zm27-12.91h-1.36c.39,1.66-1.11,3.47.59,5a5.43,5.43,0,0,0,.25,3.57,6.43,6.43,0,0,1,0,3.29c-.11.57-.78,1.1-1.3,1.51a16.73,16.73,0,0,1-2.14,1.22l1.37.56c-1.27,1.9-2.52,3.78-3.77,5.67l.32.34,1.5-.79c0,.6.19,1.22,0,1.5-1.23,1.53-2.53,2.59-4.88,2.41-1.4-.1-3.5-.85-4.57,1.16-1.12-.13-2.12-.33-2.34-1.66,0-.22-.13-.59-.27-.62-2.06-.51-1.65-1.9-.9-3.52l-2.12.44c-.32-.56-.63-1.08-.9-1.56l1.74-1.88c-.44-1-1.18-.45-1.83-.52-.42-.05-.77-.84-1.22-1.39l-2.76,2.72c-.55-2.26-3.39-3.89-.54-6.06-1.91-2.51-1.91-2.51-.25-3.26-.24-2.6,1.05-5.5-1.42-7.67h0l0,0c.17.47.34.93.47,1.41a1.66,1.66,0,0,1-.89,2.21l-1.23-1.33,1.65-2.29s0-.08,0-.12l.08.07a20.69,20.69,0,0,0,1.17-3.18c.12-.57-.38-1.25-.6-1.88,2.3-1,3.66-2.95,5.07-5.14l1.49,1.21h2c.48-1.24,1.21-1.62,2.42-.69-.22.28-.41.51-.59.75l2.18.65c.4-.24.73-1.12,1.74-.47a23.75,23.75,0,0,0,3.58,1.58l1.09-1.5c.55.41,1.22.68,1.48,1.16a2.17,2.17,0,0,0,2.48,1.18,4.72,4.72,0,0,1,2.76.7,3.5,3.5,0,0,0-1.18.63,4.49,4.49,0,0,0-.55,1.36C189.23,144.42,191,144.7,190.44,146.72Z"/></g></g></svg>